<svg width="18" height="18" viewBox="0 0 18 18" fill="none" xmlns="http://www.w3.org/2000/svg">
<path d="M3.09375 3.39258C2.78309 3.39258 2.53125 3.64442 2.53125 3.95508V12.4102C2.53125 12.7208 2.78309 12.9727 3.09375 12.9727H3.56836C4.48093 12.9727 5.2207 13.7124 5.2207 14.625V15.4248C5.22071 15.4315 5.22269 15.4381 5.2264 15.4436C5.23011 15.4492 5.23538 15.4536 5.24156 15.4562C5.24774 15.4588 5.25454 15.4595 5.26113 15.4583C5.26771 15.457 5.27379 15.4539 5.27859 15.4492L7.33602 13.4422C7.64463 13.1412 8.05869 12.9727 8.48981 12.9727H14.9062C15.2169 12.9727 15.4688 12.7208 15.4688 12.4102V3.95508C15.4688 3.64442 15.2169 3.39258 14.9062 3.39258H3.09375ZM3.09375 1.98633H14.9062C15.9936 1.98633 16.875 2.86777 16.875 3.95508V12.4102C16.875 13.4975 15.9936 14.3789 14.9062 14.3789H8.48981C8.4256 14.3789 8.36393 14.404 8.31797 14.4488L6.26055 16.4558C5.69113 17.0113 4.77923 17 4.22378 16.4306C3.96135 16.1616 3.81446 15.8006 3.81445 15.4248V14.625C3.81445 14.4891 3.70427 14.3789 3.56836 14.3789H3.09375C2.00644 14.3789 1.125 13.4975 1.125 12.4102V3.95508C1.125 2.86777 2.00644 1.98633 3.09375 1.98633ZM9 9.68555C8.37868 9.68555 7.875 9.18186 7.875 8.56055C7.875 7.93923 8.37868 7.43555 9 7.43555C9.62132 7.43555 10.125 7.93923 10.125 8.56055C10.125 9.18186 9.62132 9.68555 9 9.68555ZM13.0078 9.68555C12.3865 9.68555 11.8828 9.18186 11.8828 8.56055C11.8828 7.93923 12.3865 7.43555 13.0078 7.43555C13.6291 7.43555 14.1328 7.93923 14.1328 8.56055C14.1328 9.18186 13.6291 9.68555 13.0078 9.68555ZM4.99219 9.68555C4.37087 9.68555 3.86719 9.18186 3.86719 8.56055C3.86719 7.93923 4.37087 7.43555 4.99219 7.43555C5.6135 7.43555 6.11719 7.93923 6.11719 8.56055C6.11719 9.18186 5.6135 9.68555 4.99219 9.68555Z" fill="#6A7282"/>
</svg>
