<svg width="48" height="48" viewBox="0 0 48 48" fill="none" xmlns="http://www.w3.org/2000/svg" role="img" aria-label="动态选中">
  <defs>
    <linearGradient id="dynamicStar" x1="23" y1="5" x2="39" y2="31" gradientUnits="userSpaceOnUse">
      <stop stop-color="#FFF3A7"/>
      <stop offset="0.48" stop-color="#F7C84F"/>
      <stop offset="1" stop-color="#EAA23C"/>
    </linearGradient>
    <linearGradient id="dynamicTrail" x1="8" y1="35" x2="35" y2="12" gradientUnits="userSpaceOnUse">
      <stop stop-color="#4C7FA2"/>
      <stop offset="1" stop-color="#F2C75D"/>
    </linearGradient>
  </defs>
  <path d="M8.8 30.2C14 22 22 17.2 32.7 15.8" stroke="url(#dynamicTrail)" stroke-width="3.2" stroke-linecap="round"/>
  <path d="M31.7 5.8L35.3 14L43.6 17.6L35.3 21.2L31.7 29.4L28.1 21.2L19.8 17.6L28.1 14L31.7 5.8Z" fill="url(#dynamicStar)" stroke="#D69A32" stroke-width="1.4" stroke-linejoin="round"/>
  <path d="M15 27.5L17.5 33.1L23.1 35.6L17.5 38.1L15 43.7L12.5 38.1L6.9 35.6L12.5 33.1L15 27.5Z" fill="#FFF0A5" stroke="#E9B540" stroke-width="1.3" stroke-linejoin="round"/>
  <circle cx="8.7" cy="13.9" r="2" fill="#F7D86F"/>
  <circle cx="39.2" cy="34.4" r="1.8" fill="#F1C65D"/>
  <circle cx="24" cy="39.4" r="1.4" fill="#4C7FA2"/>
</svg>
