<svg width="48" height="48" viewBox="0 0 48 48" fill="none" xmlns="http://www.w3.org/2000/svg">
<path d="M9.5 29.5C12.8939 24.2678 17.6376 20.5354 23.6957 18.3027" stroke="#9AA8B5" stroke-width="2.2" stroke-linecap="round"/>
<path d="M31.8004 6.80005L34.8004 14.2L42.2004 17.2L34.8004 20.2L31.8004 27.6L28.8004 20.2L21.4004 17.2L28.8004 14.2L31.8004 6.80005Z" stroke="#8FA0AF" stroke-width="2.2" stroke-linejoin="round"/>
<path d="M15.1002 28.4L17.1002 33.3L22.0002 35.3L17.1002 37.3L15.1002 42.2L13.1002 37.3L8.2002 35.3L13.1002 33.3L15.1002 28.4Z" stroke="#B4BEC7" stroke-width="2" stroke-linejoin="round"/>
<path d="M9.0002 15.8C9.99431 15.8 10.8002 14.9941 10.8002 14C10.8002 13.0058 9.99431 12.2 9.0002 12.2C8.00608 12.2 7.2002 13.0058 7.2002 14C7.2002 14.9941 8.00608 15.8 9.0002 15.8Z" fill="#C7D0D8"/>
<path d="M38.5004 35.1C39.384 35.1 40.1004 34.3837 40.1004 33.5C40.1004 32.6164 39.384 31.9 38.5004 31.9C37.6167 31.9 36.9004 32.6164 36.9004 33.5C36.9004 34.3837 37.6167 35.1 38.5004 35.1Z" fill="#C7D0D8"/>
<path d="M23.9998 40.2001C24.6625 40.2001 25.1998 39.6628 25.1998 39C25.1998 38.3373 24.6625 37.8 23.9998 37.8C23.3371 37.8 22.7998 38.3373 22.7998 39C22.7998 39.6628 23.3371 40.2001 23.9998 40.2001Z" fill="#D5DCE2"/>
</svg>
