<svg width="38" height="38" viewBox="0 0 38 38" fill="none" xmlns="http://www.w3.org/2000/svg">
<path d="M19.0656 32.0011C15.6048 32.0011 12.3546 30.6552 9.90998 28.2106C7.46536 25.766 6.1194 22.5157 6.1194 19.0549C6.1194 15.5941 7.46536 12.3437 9.90998 9.89913C14.9547 4.85426 23.1767 4.85426 28.2214 9.89913C33.2663 14.944 33.2663 23.1658 28.2214 28.2106C25.7768 30.6552 22.5266 32.0011 19.0658 32.0011H19.0656ZM19.0656 8.04961C16.2456 8.04961 13.4258 9.13001 11.2833 11.2724C9.20495 13.3509 8.06046 16.1067 8.06046 19.0549C8.06046 22.0031 9.20495 24.7588 11.2833 26.8373C13.3617 28.9156 16.1267 30.0691 19.0656 30.0601C22.0139 30.0601 24.7697 28.9156 26.848 26.8373C31.1421 22.5431 31.1421 15.5665 26.848 11.2725C24.7056 9.13001 21.8856 8.04974 19.0656 8.04974V8.04961Z" fill="#5A5A5A"/>
<path d="M13.1197 13.821H14.5311C14.8677 13.821 15.1267 14.08 15.1267 14.4037V15.8151C15.1267 16.1388 14.8677 16.3977 14.544 16.3977H13.1197C12.796 16.4107 12.537 16.1517 12.537 15.828V14.4037C12.537 14.08 12.796 13.821 13.1197 13.821ZM18.299 13.821H19.7103C20.047 13.821 20.3059 14.08 20.3059 14.4037V15.8151C20.3059 16.1388 20.047 16.3977 19.7233 16.3977H18.299C17.9753 16.4107 17.7163 16.1517 17.7163 15.828V14.4037C17.7163 14.08 17.9753 13.821 18.299 13.821ZM23.4782 13.821H24.8896C25.2262 13.821 25.4852 14.08 25.4852 14.4037V15.8151C25.4852 16.1388 25.2262 16.3977 24.9025 16.3977H23.4782C23.1545 16.4107 22.8956 16.1517 22.8956 15.828V14.4037C22.8956 14.08 23.1545 13.821 23.4782 13.821ZM13.1197 17.7055H14.5311C14.8548 17.7055 15.1137 17.9645 15.1137 18.2882V19.6995C15.1137 20.0232 14.8548 20.2822 14.5311 20.2822H13.1197C12.796 20.2951 12.537 20.0362 12.537 19.7125V18.2882C12.537 17.9645 12.796 17.7055 13.1197 17.7055ZM18.299 17.7055H19.7103C20.034 17.7055 20.293 17.9645 20.293 18.2882V19.6995C20.293 20.0232 20.034 20.2822 19.7103 20.2822H18.299C17.9753 20.2951 17.7163 20.0362 17.7163 19.7125V18.2882C17.7163 17.9645 17.9753 17.7055 18.299 17.7055ZM23.4782 17.7055H24.8896C25.2133 17.7055 25.4723 17.9645 25.4723 18.2882V19.6995C25.4723 20.0232 25.2133 20.2822 24.8896 20.2822H23.4782C23.1545 20.2951 22.8956 20.0362 22.8956 19.7125V18.2882C22.8956 17.9645 23.1545 17.7055 23.4782 17.7055ZM17.3926 23.5322H20.6296C21.1605 23.5322 21.6008 23.9724 21.6008 24.5033C21.6008 25.0342 21.1605 25.4744 20.6296 25.4744H17.3926C16.8617 25.4744 16.4215 25.0342 16.4215 24.5033C16.4215 23.9724 16.8617 23.5322 17.3926 23.5322Z" fill="#5A5A5A"/>
</svg>
