<svg width="18" height="18" viewBox="0 0 18 18" fill="none" xmlns="http://www.w3.org/2000/svg">
<g clip-path="url(#clip0_8465_7349)">
<path d="M12.0974 12.3872C12.0569 12.2456 12.0597 12.0952 12.1054 11.9552C12.2424 11.5065 12.2724 11.032 12.193 10.5696C12.1135 10.1073 11.9269 9.66996 11.6479 9.29275C11.369 8.91555 11.0056 8.60893 10.5868 8.39749C10.1681 8.18605 9.70557 8.07567 9.23644 8.07518C8.77573 8.07508 8.32119 8.18107 7.90805 8.38496C7.49492 8.58885 7.13429 8.88516 6.85414 9.2509C6.57398 9.61663 6.38183 10.042 6.29257 10.494C6.20331 10.9459 6.21935 11.4124 6.33944 11.8572C6.37804 11.9907 6.37873 12.1323 6.34144 12.2662C6.11744 13.0182 5.18044 13.1792 4.94444 12.4312C4.73055 11.7517 4.68104 11.0311 4.79999 10.3287C4.91894 9.6263 5.20295 8.96219 5.62866 8.39099C6.05436 7.81979 6.6096 7.35782 7.24869 7.04308C7.88778 6.72834 8.59246 6.56983 9.30477 6.58059C10.0171 6.59135 10.7166 6.77107 11.3459 7.10496C11.9752 7.43885 12.5163 7.91738 12.9245 8.50117C13.3328 9.08497 13.5966 9.75735 13.6943 10.463C13.792 11.1687 13.7208 11.8874 13.4864 12.5602C13.2344 13.2802 12.3214 13.1172 12.0974 12.3872Z" fill="#7B7D86"/>
<path d="M13.5101 15.5234C13.4651 15.367 13.4673 15.2007 13.5166 15.0455C13.5659 14.8903 13.66 14.7532 13.7871 14.6514C14.9732 13.669 15.8275 12.3447 16.2338 10.8591C16.6401 9.37352 16.5785 7.79879 16.0575 6.34945C15.5365 4.90012 15.0959 3.88905 13.7059 3.33977C12.3158 2.7905 10.5624 5.16266 9.02226 5.16025C7.48212 5.15783 6.17955 2.87841 4.73691 3.26496C3.29427 3.65152 2.49429 4.87968 1.96871 6.32738C1.44314 7.77508 1.37664 9.34961 1.77826 10.8365C2.17988 12.3233 3.0301 13.6502 4.2131 14.6364C4.33909 14.7375 4.43268 14.8734 4.48227 15.0271C4.53186 15.1809 4.53527 15.3458 4.4921 15.5014C4.3451 15.9914 3.7691 16.2064 3.3701 15.8854C1.92022 14.7179 0.868543 13.129 0.360268 11.3382C-0.148007 9.54733 -0.0878195 7.64288 0.532522 5.88773C1.15286 4.13258 1.87666 2.95523 3.78047 2.16234C5.68428 1.36945 8.05271 3.73872 9.00007 3.73865C9.94743 3.73857 13.295 1.36993 14.7039 2.18339C16.1128 2.99685 16.8788 4.15633 17.4938 5.91335C18.1089 7.67037 18.1633 9.57499 17.6496 11.3643C17.136 13.1535 16.0795 14.7392 14.6261 15.9024C14.2301 16.2204 13.6581 16.0094 13.5091 15.5224L13.5101 15.5234Z" fill="#7B7D86"/>
</g>
<defs>
<clipPath id="clip0_8465_7349">
<rect width="18" height="18" fill="white"/>
</clipPath>
</defs>
</svg>
