<svg width="48" height="48" viewBox="0 0 48 48" fill="none" xmlns="http://www.w3.org/2000/svg" role="img" aria-label="我的选中">
  <defs>
    <linearGradient id="mineDress" x1="14" y1="7" x2="35" y2="42" gradientUnits="userSpaceOnUse">
      <stop stop-color="#6F9EBA"/>
      <stop offset="1" stop-color="#376A89"/>
    </linearGradient>
    <linearGradient id="mineGlow" x1="30" y1="7" x2="42" y2="20" gradientUnits="userSpaceOnUse">
      <stop stop-color="#FFF6B8"/>
      <stop offset="1" stop-color="#F0B33A"/>
    </linearGradient>
  </defs>
  <path d="M24 24.2C29.1 24.2 33.2 20.2 33.2 15.2C33.2 10.2 29.1 6.2 24 6.2C18.9 6.2 14.8 10.2 14.8 15.2C14.8 20.2 18.9 24.2 24 24.2Z" fill="#FFE6A7" stroke="#D59644" stroke-width="1.3"/>
  <path d="M9.8 40.8C12.2 32.8 16.9 28.7 24 28.7C31.1 28.7 35.8 32.8 38.2 40.8C34.7 43 29.7 44.2 24 44.2C18.3 44.2 13.3 43 9.8 40.8Z" fill="url(#mineDress)"/>
  <path d="M16.5 14.7C18.2 10.8 21 8.7 25.1 8.7C28.8 8.7 31.7 10.9 32.5 14.3C28.5 13.7 25.4 12.3 23.2 10.2C21.7 12.4 19.5 13.9 16.5 14.7Z" fill="#F5D476"/>
  <path d="M35.7 7.2L37.5 11.8L42.1 13.6L37.5 15.4L35.7 20L33.9 15.4L29.3 13.6L33.9 11.8L35.7 7.2Z" fill="url(#mineGlow)" stroke="#E7B24A" stroke-width="1" stroke-linejoin="round"/>
  <circle cx="13.2" cy="27.5" r="1.6" fill="#F6D76D"/>
  <circle cx="31.5" cy="36.8" r="1.2" fill="#FFE58C"/>
</svg>
