<svg width="520" height="560" viewBox="0 0 520 560" fill="none" xmlns="http://www.w3.org/2000/svg" role="img" aria-label="举着星星的女孩">
  <defs>
    <radialGradient id="glow" cx="0" cy="0" r="1" gradientUnits="userSpaceOnUse" gradientTransform="translate(186 98) rotate(65) scale(168 188)">
      <stop stop-color="#FFF7BD"/>
      <stop offset="1" stop-color="#FFF7BD" stop-opacity="0"/>
    </radialGradient>
    <linearGradient id="dress" x1="242" y1="208" x2="315" y2="425" gradientUnits="userSpaceOnUse">
      <stop stop-color="#7894B8"/>
      <stop offset="1" stop-color="#3D5B87"/>
    </linearGradient>
    <linearGradient id="hair" x1="245" y1="112" x2="322" y2="213" gradientUnits="userSpaceOnUse">
      <stop stop-color="#FFF2A9"/>
      <stop offset="1" stop-color="#E7B95C"/>
    </linearGradient>
    <filter id="soft" x="-30%" y="-30%" width="160%" height="160%">
      <feGaussianBlur stdDeviation="6"/>
    </filter>
  </defs>
  <rect width="520" height="560" fill="transparent"/>
  <circle cx="208" cy="126" r="190" fill="url(#glow)"/>
  <path d="M152 51l20 43 47 7-34 33 8 47-41-22-42 22 8-47-34-33 47-7 21-43z" fill="#F9D86C" stroke="#E9BC45" stroke-width="7" stroke-linejoin="round"/>
  <path d="M143 75c15 16 37 21 58 20" stroke="#FFF4A4" stroke-width="7" stroke-linecap="round" opacity=".72"/>
  <path d="M222 145c-14 12-25 34-20 58 3 17 18 27 36 27 18 0 39-13 49-33 15-30-2-61-30-67-11-2-24 3-35 15z" fill="url(#hair)"/>
  <path d="M266 137c18 9 52 16 79 4-15 30-42 50-75 47" fill="#F3CA73" opacity=".72"/>
  <path d="M217 177c-19 13-39 23-66 21 27 25 65 23 92-3" fill="#F4D27D" opacity=".72"/>
  <path d="M226 197c-19 14-36 45-48 95-8 34-13 73-28 111 57 27 130 34 207 1-14-49-20-91-32-126-15-44-40-75-72-83-9-2-18-1-27 2z" fill="url(#dress)"/>
  <path d="M198 252c40 24 85 28 133 12" stroke="#AFC5DE" stroke-width="7" stroke-linecap="round" opacity=".42"/>
  <path d="M206 205c-18 19-30 45-38 85" stroke="#FFE7B2" stroke-width="12" stroke-linecap="round"/>
  <path d="M170 288c-16-36-33-78-41-120" stroke="#EFC995" stroke-width="13" stroke-linecap="round"/>
  <path d="M129 168c-6-20 2-40 22-58" stroke="#EFC995" stroke-width="13" stroke-linecap="round"/>
  <path d="M327 274c34 17 51 42 52 76" stroke="#EFC995" stroke-width="13" stroke-linecap="round"/>
  <path d="M378 350c12 14 35 14 47 2 12-12 9-28-4-38-15 15-29 27-43 36z" fill="#FFE38F"/>
  <path d="M202 395c-3 48-7 82-18 122" stroke="#EFC995" stroke-width="15" stroke-linecap="round"/>
  <path d="M281 405c8 47 24 77 47 110" stroke="#EFC995" stroke-width="15" stroke-linecap="round"/>
  <path d="M170 522c16 7 31 4 44-9" stroke="#EFC995" stroke-width="13" stroke-linecap="round"/>
  <path d="M318 524c16 12 32 14 48 5" stroke="#EFC995" stroke-width="13" stroke-linecap="round"/>
  <g opacity=".84">
    <path d="M133 351l6 13 14 2-10 10 2 14-12-7-13 7 2-14-10-10 14-2 7-13z" fill="#F8D76A"/>
    <path d="M372 179l5 10 11 2-8 8 2 11-10-5-10 5 2-11-8-8 11-2 5-10z" fill="#F8D76A"/>
    <path d="M387 421l6 13 14 2-10 9 2 14-12-6-13 6 2-14-10-9 14-2 7-13z" fill="#F8D76A"/>
    <path d="M98 247l4 8 9 1-7 7 2 9-8-4-8 4 2-9-7-7 9-1 4-8z" fill="#F8D76A"/>
  </g>
  <g filter="url(#soft)" opacity=".68">
    <circle cx="151" cy="124" r="8" fill="#FFF3A8"/>
    <circle cx="381" cy="345" r="10" fill="#FFF3A8"/>
    <circle cx="274" cy="373" r="7" fill="#FFF3A8"/>
    <circle cx="103" cy="308" r="6" fill="#FFF3A8"/>
  </g>
</svg>
